<?xml version="1.0" standalone="no"?>
<!DOCTYPE svg PUBLIC "-//W3C//DTD SVG 20010904//EN"
 "http://www.w3.org/TR/2001/REC-SVG-20010904/DTD/svg10.dtd">
<svg version="1.0" xmlns="http://www.w3.org/2000/svg"
 width="700.000000pt" height="700.000000pt" viewBox="0 0 700.000000 700.000000"
 preserveAspectRatio="xMidYMid meet">
<metadata>
Created by potrace 1.14, written by Peter Selinger 2001-2017
</metadata>
<g transform="translate(0.000000,700.000000) scale(0.100000,-0.100000)"
fill="#000000" stroke="none">
<path d="M864 6247 c-52 -28 -80 -51 -122 -102 l-32 -40 0 -702 c0 -788 -6
-715 77 -878 129 -254 357 -417 643 -460 55 -8 101 -15 102 -15 2 0 4 -483 6
-1073 2 -589 5 -1297 6 -1572 l2 -500 26 -41 c26 -40 80 -89 126 -113 34 -18
203 -16 238 2 38 20 112 94 131 131 16 31 16 46 24 2354 2 446 5 813 8 813 3
1 20 3 36 5 125 14 208 36 303 80 234 108 406 316 469 565 3 13 7 332 8 708
l3 685 -23 36 c-32 50 -96 105 -141 121 -22 8 -73 13 -114 13 -107 0 -172 -37
-235 -132 -23 -36 -24 -44 -29 -282 -2 -135 -5 -281 -5 -325 l-1 -81 -132 2
c-73 1 -136 2 -139 3 -4 0 -7 76 -8 169 -3 208 -10 419 -15 452 -6 39 -17 62
-50 104 -44 55 -114 87 -198 91 -112 6 -189 -32 -253 -125 -32 -46 -29 -10
-38 -495 l-4 -200 -133 0 c-72 0 -134 4 -138 9 -3 5 -6 73 -8 150 -7 512 -5
478 -30 521 -53 94 -127 136 -244 141 -62 2 -82 -1 -116 -19z"/>
<path d="M3595 6258 c-55 -20 -111 -65 -154 -126 l-23 -33 -5 -1077 c-2 -592
-5 -1245 -6 -1451 l-3 -374 -99 -29 c-283 -84 -486 -242 -600 -468 -104 -206
-119 -281 -119 -600 0 -268 7 -318 66 -495 136 -405 380 -685 714 -818 104
-42 204 -55 382 -50 130 4 224 28 344 88 294 147 502 407 628 783 59 177 68
244 68 491 0 241 -7 302 -42 411 -103 319 -299 523 -606 635 -41 15 -86 29
-100 32 -14 2 -36 10 -49 16 l-24 12 -4 825 c-2 454 -5 1105 -6 1446 l-3 621
-37 51 c-42 59 -97 97 -159 112 -55 12 -124 11 -163 -2z"/>
<path d="M6097 6256 c-110 -41 -364 -255 -532 -450 -112 -129 -248 -340 -335
-516 -23 -47 -45 -92 -50 -101 -71 -134 -228 -623 -263 -824 -3 -16 -8 -41
-11 -55 -7 -27 -26 -141 -31 -177 -2 -12 -6 -34 -9 -50 -3 -15 -8 -48 -11 -73
-3 -25 -7 -63 -10 -85 -3 -22 -7 -67 -11 -100 -3 -33 -7 -71 -10 -85 -10 -65
-19 -251 -19 -410 0 -200 5 -217 83 -296 45 -46 81 -67 138 -80 16 -3 223 -9
459 -11 237 -3 431 -6 433 -8 1 -1 4 -457 5 -1012 l2 -1010 35 -52 c19 -28 59
-68 87 -88 52 -35 55 -36 142 -35 123 1 171 25 246 125 l28 38 0 2598 0 2598
-30 44 c-38 54 -56 71 -110 99 -55 28 -172 36 -226 16z"/>
</g>
</svg>
