<svg>
  <symbol
    id="logo"
    width="151"
    height="29"
    viewBox="0 0 151 29"
    fill="currentColor"
    xmlns="http://www.w3.org/2000/svg"
  >
    <path
      d="M7.60065 23.5793C6.94627 23.5793 6.44688 23.403 6.10247 23.0504C5.75807 22.6978 5.58586 22.1941 5.58586 21.5393V14.2356L6.41244 16.477L0.316425 8.04001C0.0753392 7.68741 -0.0279831 7.30964 0.00645765 6.90667C0.0408984 6.48692 0.213102 6.12593 0.523069 5.82371C0.833036 5.52149 1.27216 5.37038 1.84043 5.37038C2.25372 5.37038 2.62396 5.47112 2.95114 5.6726C3.29555 5.87408 3.62274 6.19309 3.93271 6.62964L8.0656 12.4474H7.23902L11.3719 6.62964C11.6991 6.1763 12.0177 5.85729 12.3276 5.6726C12.6548 5.47112 13.0337 5.37038 13.4642 5.37038C14.0152 5.37038 14.4458 5.51309 14.7557 5.79853C15.0657 6.06717 15.2293 6.41136 15.2465 6.83112C15.2637 7.23408 15.1173 7.65383 14.8074 8.09038L8.78885 16.477L9.5896 14.2356V21.5393C9.5896 22.8993 8.92662 23.5793 7.60065 23.5793Z"
    />
    <path
      d="M21.1332 23.6296C19.7728 23.6296 18.5846 23.3694 17.5686 22.8489C16.5698 22.3284 15.7949 21.5812 15.2439 20.6074C14.6928 19.6336 14.4173 18.4835 14.4173 17.157C14.4173 16.1664 14.5723 15.2765 14.8822 14.4874C15.1922 13.6983 15.6399 13.0267 16.2254 12.4726C16.8281 11.9017 17.5428 11.4736 18.3694 11.1882C19.196 10.8859 20.1172 10.7348 21.1332 10.7348C22.4937 10.7348 23.6733 10.9951 24.672 11.5156C25.688 12.0361 26.4716 12.7748 27.0226 13.7319C27.5909 14.6889 27.875 15.8306 27.875 17.157C27.875 18.1645 27.7114 19.0627 27.3842 19.8519C27.0743 20.641 26.6266 21.321 26.0411 21.8919C25.4556 22.4627 24.7409 22.8993 23.8971 23.2015C23.0705 23.4869 22.1493 23.6296 21.1332 23.6296ZM21.1332 20.7837C21.7015 20.7837 22.1923 20.6494 22.6056 20.3807C23.0189 20.1121 23.3461 19.7175 23.5872 19.197C23.8282 18.6598 23.9488 17.9798 23.9488 17.157C23.9488 15.9314 23.6905 15.0331 23.1739 14.4622C22.6573 13.8746 21.977 13.5807 21.1332 13.5807C20.5822 13.5807 20.0914 13.7067 19.6609 13.9585C19.2476 14.2104 18.9204 14.6049 18.6793 15.1422C18.4555 15.6627 18.3435 16.3343 18.3435 17.157C18.3435 18.3827 18.6019 19.2978 19.1185 19.9022C19.6351 20.4899 20.3067 20.7837 21.1332 20.7837Z"
    />
    <path
      d="M34.9233 23.6296C33.8557 23.6296 32.9688 23.4366 32.2628 23.0504C31.5568 22.6642 31.0315 22.0849 30.6871 21.3126C30.3599 20.5235 30.1963 19.5496 30.1963 18.3911V12.6993C30.1963 12.0612 30.3599 11.5827 30.6871 11.2637C31.0315 10.9447 31.5137 10.7852 32.1336 10.7852C32.7536 10.7852 33.2357 10.9447 33.5802 11.2637C33.9246 11.5827 34.0968 12.0612 34.0968 12.6993V18.4919C34.0968 19.2306 34.2518 19.7847 34.5617 20.1541C34.8717 20.5067 35.3625 20.683 36.0341 20.683C36.7745 20.683 37.3773 20.4311 37.8422 19.9274C38.3244 19.4069 38.5655 18.7269 38.5655 17.8874V12.6993C38.5655 12.0612 38.729 11.5827 39.0562 11.2637C39.4006 10.9447 39.8828 10.7852 40.5028 10.7852C41.1399 10.7852 41.6221 10.9447 41.9493 11.2637C42.2937 11.5827 42.4659 12.0612 42.4659 12.6993V21.64C42.4659 22.9328 41.8373 23.5793 40.5802 23.5793C39.9603 23.5793 39.4867 23.4114 39.1596 23.0756C38.8324 22.7398 38.6688 22.2612 38.6688 21.64V19.9526L39.0562 20.9348C38.6774 21.7911 38.1349 22.4543 37.4289 22.9244C36.7229 23.3946 35.8877 23.6296 34.9233 23.6296Z"
    />
    <path
      d="M47.4988 23.5793C46.8444 23.5793 46.345 23.4114 46.0006 23.0756C45.6562 22.7398 45.484 22.2612 45.484 21.64V12.6993C45.484 12.078 45.6476 11.6079 45.9748 11.2889C46.3192 10.9531 46.7928 10.7852 47.3955 10.7852C48.0154 10.7852 48.489 10.9531 48.8162 11.2889C49.1433 11.6079 49.3069 12.078 49.3069 12.6993V14.0089H49.0486C49.2553 13.0015 49.7116 12.2207 50.4177 11.6667C51.1237 11.1126 52.0364 10.802 53.1557 10.7348C53.5862 10.7012 53.9134 10.8104 54.1373 11.0622C54.3783 11.2973 54.5075 11.6919 54.5247 12.2459C54.5592 12.7664 54.4472 13.1778 54.1889 13.48C53.9478 13.7822 53.5345 13.9669 52.9491 14.0341L52.3549 14.0845C51.3734 14.1684 50.6415 14.4454 50.1593 14.9156C49.6944 15.3857 49.4619 16.0657 49.4619 16.9556V21.64C49.4619 22.2612 49.2897 22.7398 48.9453 23.0756C48.6181 23.4114 48.136 23.5793 47.4988 23.5793Z"
    />
    <path
      d="M58.3246 23.5793C57.7391 23.5793 57.2914 23.4198 56.9814 23.1007C56.6715 22.7817 56.5165 22.3368 56.5165 21.7659V7.18371C56.5165 6.61285 56.6801 6.16791 57.0073 5.84889C57.3517 5.52988 57.8166 5.37038 58.4021 5.37038C58.9187 5.37038 59.3234 5.47112 59.6162 5.6726C59.9261 5.85729 60.2103 6.1847 60.4686 6.65482L66.4354 17.283H65.5572L71.5241 6.65482C71.7824 6.1847 72.0579 5.85729 72.3506 5.6726C72.6606 5.47112 73.0653 5.37038 73.5647 5.37038C74.1502 5.37038 74.5979 5.52988 74.9079 5.84889C75.2351 6.16791 75.3986 6.61285 75.3986 7.18371V21.7659C75.3986 22.3368 75.2437 22.7817 74.9337 23.1007C74.6237 23.4198 74.176 23.5793 73.5905 23.5793C73.005 23.5793 72.5487 23.4198 72.2215 23.1007C71.9115 22.7817 71.7565 22.3368 71.7565 21.7659V11.5659H72.3248L67.5203 19.9526C67.3137 20.2716 67.0898 20.5151 66.8487 20.683C66.6249 20.8341 66.3235 20.9096 65.9447 20.9096C65.5658 20.9096 65.2558 20.8257 65.0148 20.6578C64.7737 20.4899 64.5584 20.2548 64.369 19.9526L59.5128 11.5407H60.1328V21.7659C60.1328 22.3368 59.9778 22.7817 59.6678 23.1007C59.3751 23.4198 58.9273 23.5793 58.3246 23.5793Z"
    />
    <path
      d="M85.3428 23.6296C83.8446 23.6296 82.5531 23.3694 81.4682 22.8489C80.4006 22.3116 79.574 21.5645 78.9885 20.6074C78.4202 19.6336 78.1361 18.4919 78.1361 17.1822C78.1361 15.9062 78.4116 14.7896 78.9627 13.8326C79.5137 12.8588 80.28 12.1032 81.2616 11.5659C82.2604 11.0119 83.3883 10.7348 84.6454 10.7348C85.5581 10.7348 86.3846 10.8859 87.1251 11.1882C87.8656 11.4736 88.5028 11.8933 89.0366 12.4474C89.5704 12.9847 89.9751 13.6479 90.2506 14.437C90.5261 15.2094 90.6639 16.0741 90.6639 17.0311C90.6639 17.3501 90.5606 17.5936 90.3539 17.7615C90.1473 17.9126 89.8459 17.9882 89.4499 17.9882H81.3391V16.0237H87.8484L87.4351 16.3763C87.4351 15.6879 87.3318 15.117 87.1251 14.6637C86.9185 14.1936 86.6171 13.841 86.2211 13.6059C85.8422 13.3709 85.3686 13.2533 84.8004 13.2533C84.1632 13.2533 83.6208 13.3961 83.173 13.6815C82.7253 13.9669 82.3809 14.3783 82.1398 14.9156C81.8987 15.4528 81.7782 16.0993 81.7782 16.8548V17.0563C81.7782 18.3324 82.0796 19.2726 82.6823 19.877C83.3022 20.4815 84.2149 20.7837 85.4203 20.7837C85.8336 20.7837 86.3072 20.7333 86.841 20.6326C87.3748 20.5319 87.8742 20.3724 88.3392 20.1541C88.7352 19.9694 89.0882 19.9106 89.3982 19.9778C89.7082 20.0282 89.9493 20.1625 90.1215 20.3807C90.2937 20.599 90.3884 20.8509 90.4056 21.1363C90.44 21.4217 90.3798 21.7072 90.2248 21.9926C90.0698 22.2612 89.8115 22.4879 89.4499 22.6726C88.8644 22.9916 88.2014 23.2267 87.4609 23.3778C86.7377 23.5457 86.0316 23.6296 85.3428 23.6296Z"
    />
    <path
      d="M97.2204 23.6296C96.2905 23.6296 95.4553 23.4533 94.7149 23.1007C93.9744 22.7482 93.3975 22.2696 92.9842 21.6652C92.5709 21.0607 92.3643 20.3807 92.3643 19.6252C92.3643 18.7185 92.6054 18.0049 93.0875 17.4845C93.5697 16.9472 94.3532 16.5694 95.4381 16.3511C96.523 16.1161 97.9609 15.9985 99.7518 15.9985H101.121V17.963H99.7777C98.8994 17.963 98.1848 18.0133 97.6337 18.1141C97.0999 18.198 96.7124 18.3491 96.4714 18.5674C96.2475 18.7857 96.1356 19.0879 96.1356 19.4741C96.1356 19.9442 96.2991 20.3304 96.6263 20.6326C96.9707 20.9348 97.4615 21.0859 98.0987 21.0859C98.5981 21.0859 99.0372 20.9768 99.416 20.7585C99.8121 20.5235 100.122 20.2128 100.346 19.8267C100.57 19.4237 100.682 18.9704 100.682 18.4667V15.5704C100.682 14.8316 100.51 14.3111 100.165 14.0089C99.8207 13.6899 99.2352 13.5304 98.4086 13.5304C97.9437 13.5304 97.4357 13.5891 96.8846 13.7067C96.3508 13.8074 95.7567 13.9837 95.1023 14.2356C94.7235 14.4035 94.3877 14.4454 94.0949 14.3615C93.8022 14.2607 93.5783 14.0928 93.4233 13.8578C93.2684 13.6059 93.1909 13.3373 93.1909 13.0519C93.1909 12.7496 93.277 12.4642 93.4492 12.1956C93.6214 11.9101 93.9055 11.7003 94.3016 11.5659C95.1109 11.2469 95.8686 11.0286 96.5747 10.9111C97.2979 10.7936 97.9609 10.7348 98.5636 10.7348C99.8896 10.7348 100.974 10.9279 101.818 11.3141C102.679 11.6835 103.325 12.2627 103.756 13.0519C104.186 13.8242 104.401 14.8232 104.401 16.0489V21.64C104.401 22.2612 104.246 22.7398 103.936 23.0756C103.626 23.4114 103.179 23.5793 102.593 23.5793C102.008 23.5793 101.551 23.4114 101.224 23.0756C100.914 22.7398 100.759 22.2612 100.759 21.64V20.7082L100.94 20.8593C100.837 21.4301 100.613 21.9254 100.268 22.3452C99.9413 22.7482 99.5194 23.0672 99.0027 23.3022C98.4861 23.5205 97.892 23.6296 97.2204 23.6296Z"
    />
    <path
      d="M111.883 23.6296C110.35 23.6296 109.205 23.2183 108.447 22.3956C107.69 21.5561 107.311 20.3136 107.311 18.6682V7.30964C107.311 6.67161 107.475 6.19309 107.802 5.87408C108.146 5.53828 108.637 5.37038 109.274 5.37038C109.894 5.37038 110.368 5.53828 110.695 5.87408C111.039 6.19309 111.211 6.67161 111.211 7.30964V18.517C111.211 19.2054 111.358 19.7175 111.65 20.0533C111.96 20.3724 112.365 20.5319 112.864 20.5319C113.002 20.5319 113.131 20.5235 113.252 20.5067C113.372 20.4899 113.502 20.4815 113.639 20.4815C113.915 20.4479 114.104 20.5319 114.208 20.7333C114.328 20.918 114.388 21.2958 114.388 21.8667C114.388 22.3704 114.285 22.7565 114.079 23.0252C113.872 23.277 113.553 23.4449 113.123 23.5289C112.951 23.5457 112.753 23.5625 112.529 23.5793C112.305 23.6128 112.09 23.6296 111.883 23.6296Z"
    />
    <path
      d="M122.233 0.791288C122.07 0.882334 121.854 1.07743 121.743 1.227L121.547 1.50664V4.99234V8.48455L121.717 8.92027C122.331 10.4875 123.651 11.528 125.238 11.6906L125.663 11.7361L125.696 19.605L125.729 27.4738L125.872 27.708C125.957 27.838 126.147 28.0266 126.297 28.1307C126.539 28.2998 126.624 28.3193 127.068 28.3193C127.506 28.3193 127.597 28.2998 127.826 28.1437C127.963 28.0461 128.153 27.8575 128.244 27.721L128.407 27.4803L128.44 19.6115L128.473 11.7361L128.897 11.6906C130.524 11.528 131.949 10.364 132.445 8.80971C132.589 8.36099 132.589 8.28946 132.589 4.93382V1.51314L132.413 1.25952C132.125 0.856319 131.825 0.687237 131.321 0.661224C130.786 0.635212 130.4 0.810799 130.106 1.227L129.91 1.50664L129.878 3.13894L129.845 4.77774H129.159H128.473L128.44 3.14544C128.407 1.53915 128.407 1.51314 128.244 1.27903C127.97 0.869326 127.636 0.687237 127.14 0.661224C126.604 0.635212 126.219 0.810799 125.925 1.227L125.729 1.50664L125.696 3.13894L125.663 4.77774H124.977H124.291L124.258 3.14544L124.226 1.51314L124.049 1.25952C123.762 0.856319 123.461 0.687237 122.958 0.661224C122.599 0.641716 122.475 0.667728 122.233 0.791288ZM129.812 7.73669C129.812 8.13338 129.492 8.56909 129.028 8.81622C128.819 8.92677 128.636 8.93978 127.068 8.93978C125.421 8.93978 125.323 8.93327 125.075 8.79671C124.631 8.56259 124.324 8.12688 124.324 7.73669V7.54159H127.068H129.812V7.73669Z"
    />
    <path
      d="M135.777 0.79129C135.614 0.882334 135.398 1.07743 135.287 1.227L135.091 1.50664L135.058 8.75769L135.026 16.0087L134.477 16.1713C133.105 16.5615 132.079 17.3809 131.504 18.532C131.001 19.553 130.916 19.9757 130.916 21.4584C130.916 22.5444 130.936 22.8046 131.053 23.2793C131.694 25.796 133.111 27.5129 135.091 28.1697C135.477 28.2932 135.686 28.3193 136.431 28.3193C137.175 28.3193 137.385 28.2932 137.77 28.1697C139.75 27.5129 141.168 25.796 141.808 23.2793C141.926 22.8046 141.945 22.5444 141.945 21.4584C141.945 20.3659 141.926 20.1187 141.801 19.67C141.311 17.8686 140.142 16.6721 138.384 16.1713L137.835 16.0087L137.803 8.76419L137.77 1.51314L137.594 1.25952C137.306 0.856319 137.006 0.687239 136.502 0.661226C136.143 0.641716 136.019 0.667728 135.777 0.79129ZM137.718 18.8571C138.45 19.1042 138.926 19.67 139.109 20.4894C139.234 21.0552 139.162 22.4729 138.979 23.0517C138.639 24.1182 137.992 25.0156 137.293 25.3668C136.855 25.5879 136.012 25.5944 135.581 25.3733C134.836 24.9896 134.235 24.1572 133.869 23.0192C133.739 22.59 133.719 22.4014 133.719 21.4584C133.719 20.4114 133.726 20.3789 133.909 19.9757C134.235 19.2733 134.902 18.8181 135.777 18.7011C135.777 18.7011 137.313 18.7271 137.718 18.8571Z"
    />
    <path
      d="M148.375 0.765276C147.538 1.20099 146.245 2.38457 145.448 3.43158C143.461 6.06537 142.305 9.78519 142.037 14.435C141.939 16.1388 141.985 16.3924 142.436 16.8411C142.873 17.2769 142.991 17.2964 145.474 17.2964H147.604V22.3233V27.3568L147.754 27.6299C147.832 27.786 148.028 28.0006 148.185 28.1177C148.44 28.2998 148.505 28.3193 148.969 28.3193C149.414 28.3193 149.505 28.2998 149.734 28.1437C149.871 28.0461 150.061 27.8575 150.152 27.721L150.315 27.4803V14.5V1.51314L150.139 1.25952C149.851 0.849817 149.551 0.687237 149.048 0.661224C148.721 0.648218 148.558 0.667728 148.375 0.765276ZM147.604 9.88274V14.5H146.219H144.84L144.886 13.8302C145.003 12.0418 145.441 9.88274 146.01 8.28946C146.388 7.23594 147.408 5.26548 147.571 5.26548C147.591 5.26548 147.604 7.33999 147.604 9.88274Z"
    />
  </symbol>
</svg>